<?xml version="1.0" encoding="UTF-8"?>
<svg version="1.1" xmlns="http://www.w3.org/2000/svg" width="512" height="512">
<path d="M0 0 C1.59480078 -0.00187011 3.1896011 -0.00417162 4.7844007 -0.00686532 C9.1513829 -0.01296493 13.51834591 -0.0128519 17.88533139 -0.01167095 C22.60121532 -0.01146648 27.31709317 -0.01699012 32.03297424 -0.02172852 C41.26644928 -0.03002548 50.49991793 -0.03278292 59.73339638 -0.03334089 C67.24069932 -0.0338165 74.74800016 -0.03587345 82.25530243 -0.03904152 C103.55190003 -0.0478454 124.8484926 -0.0524613 146.14509204 -0.05171105 C147.86628692 -0.05165111 147.86628692 -0.05165111 149.62225342 -0.05158997 C150.77112179 -0.05154909 151.91999015 -0.0515082 153.10367271 -0.05146609 C171.72115634 -0.05105966 190.33861974 -0.0606289 208.95609751 -0.07472833 C228.08416656 -0.08909986 247.21222574 -0.09599809 266.34030032 -0.09513456 C277.07452419 -0.09480286 287.80872686 -0.09753794 298.54294586 -0.10831261 C307.68230048 -0.1174278 316.82162426 -0.11958446 325.96098146 -0.11280318 C330.62078924 -0.10954317 335.28053792 -0.10946255 339.94034004 -0.11815643 C344.212707 -0.12604526 348.4849682 -0.12456578 352.75733265 -0.1158723 C354.29631618 -0.11434255 355.83530769 -0.11613351 357.37428179 -0.12173238 C375.60854306 -0.18363376 391.62724276 1.69318651 405.34832764 14.90324402 C413.48380597 24.13854845 418.4230227 35.05108115 418.44739246 47.42908478 C418.45185031 48.4830084 418.45630815 49.53693202 418.46090108 50.62279272 C418.46062454 52.35024465 418.46062454 52.35024465 418.46034241 54.1125946 C418.4640191 55.34092719 418.46769578 56.56925977 418.47148389 57.83481455 C418.48059445 61.24170859 418.48521684 64.64855453 418.4878732 68.05545616 C418.49178336 71.73118713 418.50136124 75.40690424 418.51008606 79.08262634 C418.52983119 87.9586917 418.53991456 96.83475816 418.54881385 105.71083999 C418.55320026 109.89418216 418.55856619 114.07752308 418.56380272 118.26086426 C418.58081364 132.17342109 418.59530658 146.08597715 418.60255146 159.99854279 C418.60446125 163.60740154 418.6063816 167.21626029 418.6083374 170.82511902 C418.60882114 171.72204714 418.60930488 172.61897525 418.60980328 173.54308301 C418.61809899 188.06430723 418.64342876 202.58544896 418.67591808 217.10663718 C418.70902611 232.02641362 418.72700363 246.94614819 418.7301957 261.86596155 C418.73235742 270.23831964 418.74105631 278.61055744 418.76665688 286.98287964 C418.78841515 294.11497238 418.79638921 301.24691563 418.78669009 308.3790378 C418.78216006 312.01412829 418.78395518 315.64891065 418.80345154 319.28395844 C418.82446245 323.23575218 418.81405067 327.18712677 418.80091858 331.13896179 C418.81737245 332.83964506 418.81737245 332.83964506 418.83415872 334.57468557 C418.72179841 348.64819167 413.96719081 361.82444116 404.37957764 372.21965027 C391.5535329 384.10010759 377.23991172 385.73000233 360.62054443 385.64787292 C358.75822879 385.65334256 356.89591765 385.66058911 355.03361511 385.66946411 C351.04604601 385.68472589 347.05873391 385.68763476 343.0711422 385.68069839 C336.76303016 385.66986162 330.45518425 385.6873515 324.14710999 385.70851135 C314.17207506 385.73869621 304.19711968 385.75045942 294.22204286 385.75408781 C276.34799048 385.76075078 258.47399298 385.78978047 240.60000831 385.83918417 C234.33142128 385.8556606 228.06294994 385.86110328 221.79434335 385.85759377 C217.89676966 385.85715637 213.99923961 385.86472608 210.10167885 385.87426949 C208.29693402 385.87694891 206.49218031 385.87620627 204.68743896 385.87175941 C202.22062751 385.86610198 199.75413136 385.87268285 197.28733826 385.88215637 C196.57663341 385.87749316 195.86592856 385.87282995 195.1336872 385.86802542 C187.88324484 385.92225004 182.61915199 387.25222403 177.37567139 392.32121277 C176.52102295 393.12945496 175.66637451 393.93769714 174.78582764 394.77043152 C173.96985107 395.55031433 173.15387451 396.33019714 172.31317139 397.13371277 C170.98747324 398.30904817 169.65469797 399.4764767 168.31317139 400.63371277 C165.28562371 403.27060913 162.29379859 405.94387846 159.31317139 408.63371277 C155.69640793 411.89762125 152.0492753 415.12162226 148.37567139 418.32121277 C146.0035271 420.40582441 143.65761074 422.51799921 141.31317139 424.63371277 C137.69640793 427.89762125 134.0492753 431.12162226 130.37567139 434.32121277 C128.0035271 436.40582441 125.65761074 438.51799921 123.31317139 440.63371277 C119.69490811 443.89897475 116.04939595 447.12759026 112.36785889 450.32121277 C110.87735782 451.6360274 109.40569901 452.9723011 107.94598389 454.32121277 C93.61352727 467.53743445 79.97132661 474.99609445 60.29168701 474.26554871 C47.91563227 473.44088563 36.99015965 466.88158893 28.61004639 458.04777527 C20.0848457 447.23178936 16.9790686 435.41410197 17.11785889 421.85246277 C17.12068878 420.79837219 17.12351868 419.74428162 17.12643433 418.6582489 C17.13756153 415.31661767 17.16265235 411.97526196 17.18817139 408.63371277 C17.19821082 406.35767499 17.20733499 404.08163299 17.21551514 401.80558777 C17.23747639 396.2482033 17.27087909 390.69097773 17.31317139 385.13371277 C16.13400146 385.15466003 14.95483154 385.1756073 13.7399292 385.19718933 C9.31183297 385.27028582 4.88378862 385.31576256 0.45526123 385.35343933 C-1.4514059 385.37339769 -3.35801309 385.40057437 -5.26446533 385.43547058 C-20.42309129 385.70573449 -32.24860092 384.61164227 -44.68682861 375.13371277 C-46.23370361 374.01996277 -46.23370361 374.01996277 -47.81182861 372.88371277 C-56.38071392 364.68738769 -62.21324037 353.57489945 -62.81447911 341.58894479 C-62.81572561 340.67940188 -62.81697211 339.76985896 -62.81825638 338.83275414 C-62.82209752 337.77759712 -62.82593867 336.7224401 -62.82989621 335.63530862 C-62.82902973 334.48230976 -62.82816325 333.3293109 -62.82727051 332.14137268 C-62.83024163 330.91162897 -62.83321275 329.68188525 -62.83627391 328.41487658 C-62.84344744 325.00411933 -62.8461327 321.59341245 -62.84687138 318.18265128 C-62.84872439 314.5028704 -62.85627303 310.82310039 -62.86300659 307.14332581 C-62.87658103 299.09768686 -62.88261339 291.0520529 -62.88701725 283.0064044 C-62.88978146 277.98049661 -62.89401916 272.95459073 -62.89852142 267.92868423 C-62.91071346 254.00754352 -62.92101256 240.08640434 -62.92439651 226.16525841 C-62.92461608 225.2744826 -62.92483565 224.38370679 -62.92506187 223.46593777 C-62.92528014 222.57305403 -62.92549842 221.68017029 -62.92572331 220.76022947 C-62.92616678 218.95096739 -62.92661334 217.14170531 -62.92706299 215.33244324 C-62.92728442 214.4349905 -62.92750585 213.53753776 -62.92773399 212.61288948 C-62.93168033 198.07739739 -62.94912964 183.54195548 -62.97242251 169.00648277 C-62.99615572 154.07541551 -63.00859928 139.14437341 -63.00976443 124.213287 C-63.01068014 115.83319212 -63.01640612 107.45316262 -63.03458405 99.07308578 C-63.0500117 91.93582816 -63.05508985 84.79865612 -63.04684594 77.66138498 C-63.04294871 74.02254419 -63.04382341 70.38387558 -63.05790329 66.74505615 C-63.07305621 62.79261546 -63.06474815 58.84041489 -63.05432129 54.88795471 C-63.06237769 53.74834018 -63.0704341 52.60872565 -63.07873464 51.43457735 C-62.98783794 36.66450091 -58.34153093 24.15367158 -48.13604736 13.39152527 C-34.38567875 0.71574687 -17.70454412 -0.01971496 0 0 Z M28.31317139 83.13371277 C18.88571443 95.85820385 17.84820038 109.243847 17.91473389 124.54386902 C17.91270719 126.20430631 17.90979084 127.86474272 17.90603638 129.525177 C17.90164221 132.9853523 17.90795018 136.44529345 17.92205811 139.90544128 C17.9391618 144.31198516 17.92928287 148.71798112 17.91134071 153.12450504 C17.90043516 156.54687536 17.90397982 159.96911843 17.91172409 163.39149284 C17.91370674 165.01518763 17.91133593 166.63889446 17.90428543 168.26257515 C17.84722012 185.08930019 20.81928592 199.22509789 32.72723389 211.80558777 C42.72278563 220.80460414 54.37697205 224.6061795 67.61549377 224.52812195 C69.09688112 224.5372586 69.09688112 224.5372586 70.60819548 224.54657984 C73.89123997 224.56312317 77.17389292 224.55844638 80.45697021 224.55363464 C82.8215627 224.56098 85.18615161 224.56956759 87.55073547 224.57929993 C93.95580247 224.60147562 100.36074066 224.60444856 106.76584077 224.60255241 C110.77182979 224.60176142 114.7778053 224.60668231 118.78378868 224.61303711 C120.13296483 224.61513648 121.48214098 224.61723408 122.83131713 224.61932993 C123.8388447 224.62089522 123.8388447 224.62089522 124.86672636 224.62249213 C137.54871979 224.64136325 150.23065528 224.64035395 162.91265693 224.63352281 C174.49134529 224.62794977 186.06981223 224.64876802 197.64844886 224.68188328 C209.56256797 224.7156912 221.47658123 224.73077979 233.39074916 224.72616625 C240.06954042 224.7239287 246.74815629 224.72952421 253.42691994 224.75405884 C259.71028439 224.77637945 265.99318915 224.77440334 272.27655602 224.75413132 C274.57545201 224.75073071 276.87437928 224.7557691 279.17323303 224.7701149 C297.0331131 224.8738305 310.58644304 222.92604045 324.27410889 210.32902527 C336.3613875 197.60835215 337.63021591 182.64167487 337.61395264 166.05168152 C337.61784786 164.38935236 337.62218421 162.72702419 337.62693787 161.06469727 C337.63437009 157.59084336 337.63413106 154.11709114 337.62884521 150.64323425 C337.62306019 146.22215576 337.63997275 141.80149752 337.66318989 137.3804884 C337.67802334 133.94950992 337.67878586 130.51863037 337.67568016 127.0876255 C337.67618874 125.4591673 337.68133802 123.83070286 337.69149208 122.20227623 C337.78028366 105.97102613 335.55260863 91.54840799 323.93817139 79.25871277 C312.05203928 68.42678306 298.68218061 64.97736151 282.87187195 64.99327087 C281.94063541 64.99029975 281.00939886 64.98732863 280.04994303 64.98426747 C276.93967857 64.97561862 273.82945277 64.97407545 270.71917725 64.97257996 C268.48473021 64.96794903 266.25028396 64.962924 264.01583862 64.95753479 C257.95145724 64.94443405 251.88708691 64.93797021 245.82269359 64.93352413 C242.0299577 64.93058927 238.23722481 64.92648365 234.44449043 64.92201996 C223.92631026 64.90991519 213.40813186 64.89953212 202.88994503 64.89614487 C201.88147214 64.89581552 201.88147214 64.89581552 200.85262606 64.89547952 C199.84185112 64.8951521 199.84185112 64.8951521 198.81065649 64.89481807 C197.44536523 64.89437461 196.08007397 64.89392805 194.71478271 64.89347839 C194.03756279 64.89325696 193.36034286 64.89303553 192.66260112 64.89280739 C181.70201113 64.88886375 170.7414878 64.87142093 159.78092354 64.84811887 C148.50536953 64.82434235 137.2298477 64.81219755 125.9542647 64.81077695 C119.63257121 64.80973133 113.31097179 64.80387538 106.98930168 64.78595734 C101.03766996 64.769416 95.08620241 64.76735055 89.13455582 64.77609634 C86.95863593 64.77686351 84.78270699 64.77256661 82.60680962 64.76263809 C61.23463743 64.67089198 43.51402676 66.4430339 28.31317139 83.13371277 Z M120.31317139 260.13371277 C116.59765435 263.94700657 114.03060132 267.85137086 114.00067139 273.25871277 C114.31181361 284.4415303 119.42600276 294.26536642 127.00067139 302.32121277 C143.03794709 317.3580535 162.9195803 320.78336939 184.04754639 320.44621277 C202.53501559 319.77999766 218.79185866 312.25070239 231.56317139 298.88371277 C238.24848412 291.09085321 241.78071009 281.73988204 241.66082764 271.48136902 C240.89295393 266.29606452 237.91973459 262.44433012 233.93817139 259.19621277 C228.16995379 256.86145803 223.77523347 256.71276674 218.10614014 259.11418152 C214.1432865 261.36756888 212.10886642 265.08591689 210.31317139 269.13371277 C210.07527626 270.58751633 209.86773423 272.04655817 209.68817139 273.50871277 C208.88793563 277.20070958 207.87994157 279.057544 204.93817139 281.44621277 C192.56446497 289.3363737 177.7585831 290.07653752 163.57489014 287.43840027 C157.60850625 285.63408087 151.32299195 283.07746622 147.31317139 278.13371277 C146.24309443 275.36142846 145.56931371 272.66232511 144.94598389 269.75871277 C143.83966136 265.16952305 141.6719936 262.19873558 138.00067139 259.32121277 C131.58075635 256.48450613 126.34193442 256.70559261 120.31317139 260.13371277 Z " fill="#000000" transform="translate(77.68682861328125,14.866287231445313)"/>
<path d="M0 0 C0.92629955 -0.00226556 1.8525991 -0.00453111 2.80696833 -0.00686532 C5.91214723 -0.01319757 9.0172824 -0.01237645 12.12246704 -0.0115509 C14.34827226 -0.01454286 16.57407696 -0.01794548 18.79988098 -0.02172852 C24.84738547 -0.03056863 30.89487582 -0.03290663 36.94238615 -0.0335443 C41.98968042 -0.03449356 47.03697139 -0.03817202 52.0842644 -0.0417164 C63.31118497 -0.04939564 74.53809885 -0.05238501 85.76502125 -0.05171105 C86.77509412 -0.05165111 86.77509412 -0.05165111 87.80557251 -0.05158997 C88.47977838 -0.05154909 89.15398425 -0.0515082 89.84862061 -0.05146609 C100.77525156 -0.05105963 111.70184805 -0.06062973 122.62846904 -0.07472833 C133.85307604 -0.08909694 145.07766675 -0.09581517 156.30228484 -0.09513456 C162.60196387 -0.09487947 168.9016039 -0.09773681 175.20127487 -0.10831261 C181.12574744 -0.11798692 187.05014366 -0.1180773 192.97461891 -0.11079597 C195.14863636 -0.10974933 197.32265855 -0.11211774 199.49666786 -0.11815643 C202.4652351 -0.12586791 205.43353811 -0.12123702 208.40209961 -0.11352539 C209.26154438 -0.11866895 210.12098916 -0.12381252 211.00647771 -0.12911195 C217.13677852 -0.09394161 222.24375451 0.54790524 227.57803345 3.82121277 C232.30690691 8.68144383 233.2035892 13.85329691 233.21621704 20.44255066 C233.22410248 21.48301292 233.22410248 21.48301292 233.23214722 22.54449463 C233.24524761 24.81535504 233.23664623 27.08550269 233.22647095 29.35636902 C233.22849433 30.94624973 233.23140797 32.53612953 233.23516846 34.12600708 C233.2395781 37.4487344 233.233204 40.77121887 233.21914673 44.09391785 C233.20204148 48.34304375 233.21191283 52.59160165 233.22986412 56.84070683 C233.24072697 60.12048591 233.23724443 63.40013127 233.22948074 66.67991447 C233.22748637 68.24633795 233.22991111 69.81277375 233.2369194 71.37918282 C233.24457701 73.57120367 233.23287145 75.76231587 233.21621704 77.95426941 C233.21383026 79.19890457 233.21144348 80.44353973 233.20898438 81.72589111 C232.7169481 86.12743407 231.33204982 89.52254001 228.2928772 92.77824402 C222.78904907 96.98705376 219.51987256 97.28227264 212.70639038 97.28088379 C211.27072499 97.28639882 211.27072499 97.28639882 209.80605626 97.29202527 C206.57867614 97.30309387 203.35132818 97.30691131 200.12393188 97.31071472 C197.81812944 97.31697695 195.51232802 97.32362354 193.20652771 97.33062744 C186.92752142 97.34805907 180.64852276 97.358595 174.36949825 97.36683297 C170.44937697 97.37197831 166.52925808 97.37805423 162.60913849 97.3843441 C151.7574477 97.40121671 140.90575985 97.41585176 130.05405807 97.42309284 C127.23734282 97.42500277 124.42062758 97.4269231 121.60391235 97.42887878 C120.90382275 97.42936252 120.20373314 97.42984626 119.4824287 97.43034466 C108.14103807 97.43864523 96.7997529 97.46398203 85.45840833 97.49645946 C73.81692425 97.52952481 62.17549922 97.54720832 50.53396821 97.55073708 C43.99668351 97.5530914 37.45956545 97.56210156 30.92232513 97.58719826 C24.77294589 97.61042398 18.62384367 97.61473424 12.47443199 97.60443687 C10.21613584 97.60394007 7.95782632 97.61030278 5.69957161 97.62399292 C2.61858364 97.64162705 -0.46140107 97.63464699 -3.54238892 97.62145996 C-4.43792048 97.63242921 -5.33345204 97.64339845 -6.25612092 97.6547001 C-11.72457864 97.59811788 -14.83087635 96.76967516 -19.17196655 93.13371277 C-23.61963251 88.20521805 -24.29735557 84.85542043 -24.34896851 78.31071472 C-24.3555397 77.6208699 -24.3621109 76.93102509 -24.36888123 76.22027588 C-24.38858807 73.93751409 -24.40027279 71.6548181 -24.4102478 69.37199402 C-24.41432333 68.59038595 -24.41839886 67.80877789 -24.42259789 67.00348473 C-24.4434505 62.86403545 -24.457754 58.72461921 -24.46713257 54.58512878 C-24.47817725 50.3225926 -24.51255652 46.06058129 -24.55230427 41.79823017 C-24.57853296 38.50981723 -24.58683006 35.22152797 -24.59041405 31.93301964 C-24.59526626 30.36263178 -24.60684114 28.79224895 -24.62545204 27.22196388 C-24.79643636 11.83513744 -24.79643636 11.83513744 -20.17196655 5.13371277 C-13.83929676 -0.12105578 -7.83964827 -0.01405302 0 0 Z M128.03115845 35.07511902 C123.77353682 40.57961555 122.09835794 45.05846635 122.82803345 52.13371277 C125.14468617 58.96783829 128.28809539 63.86374374 134.82803345 67.13371277 C139.7496423 68.93830268 144.56127005 68.57052773 149.45303345 66.88371277 C155.34590985 63.82814723 159.12651559 60.61953257 161.51553345 54.32121277 C162.52074993 47.28469739 162.14784661 41.93733987 157.82803345 36.13371277 C152.3797807 31.08010207 147.69876396 28.73088722 140.23428345 28.86418152 C135.20859682 29.42712369 131.46217301 31.36813155 128.03115845 35.07511902 Z M50.95303345 37.07121277 C47.29492347 42.34319479 46.04181735 46.68428383 46.82803345 53.13371277 C49.02046247 59.94178185 52.4922497 64.01046006 58.70303345 67.44621277 C63.52093807 69.63943801 67.2151809 70.06217924 72.31240845 68.25090027 C78.331468 65.56191212 81.59238701 62.8743758 84.82803345 57.13371277 C86.53385703 51.51778708 86.64047746 46.29645295 84.20303345 40.94621277 C81.57011366 36.21067859 78.23296856 33.49867594 73.51553345 30.82121277 C64.8507879 28.60464995 56.99808242 30.23076262 50.95303345 37.07121277 Z " fill="#000000" transform="translate(151.17196655273438,110.86628723144531)"/>
</svg>
