<?xml version="1.0" encoding="UTF-8"?>
<svg version="1.1" xmlns="http://www.w3.org/2000/svg" width="512" height="512">
<path d="M0 0 C1.14399765 -0.0065712 2.2879953 -0.0131424 3.46665955 -0.01991272 C7.24820021 -0.0396005 11.02970113 -0.05130161 14.8112793 -0.0612793 C16.10846579 -0.06535482 17.40565228 -0.06943035 18.74214745 -0.07362938 C24.90751977 -0.09232965 31.07287241 -0.10689527 37.23826724 -0.11524135 C44.31017268 -0.12497689 51.38176204 -0.15120498 58.45355636 -0.19174224 C63.94689361 -0.22212863 69.44014151 -0.23673171 74.93356103 -0.24002236 C78.20102471 -0.24234942 81.46807786 -0.25304287 84.73546791 -0.27648354 C117.157838 -0.49453036 143.97411498 7.28160862 167.57299805 30.17700195 C187.51186547 51.34666367 195.73029473 77.56408449 195.71826172 106.03979492 C195.72329964 107.77090515 195.72329964 107.77090515 195.72843933 109.5369873 C195.73789529 113.3310658 195.73988964 117.12509992 195.7409668 120.91918945 C195.74336901 122.89958619 195.7457732 124.87998293 195.74842721 126.86037934 C195.75654281 133.08066956 195.75901406 139.30094533 195.75830078 145.52124023 C195.75770028 151.91109526 195.76825336 158.3008658 195.78404444 164.69069946 C195.79717238 170.20183926 195.8024825 175.71295161 195.80184537 181.22410691 C195.80159198 184.50462182 195.80529343 187.78504516 195.81502342 191.06554794 C195.82487331 194.72890906 195.82192563 198.39205499 195.81591797 202.05541992 C195.82153748 203.12382111 195.82715698 204.19222229 195.83294678 205.29299927 C195.77053406 220.34847423 192.33142149 233.09222754 181.6940918 244.2121582 C168.62134178 256.32190638 154.10457894 256.76642926 137.20581055 256.69458008 C135.05604581 256.70000783 132.9062848 256.70713413 130.75653076 256.71582031 C124.94660992 256.7339788 119.13697478 256.72701699 113.32704926 256.71430397 C107.23080202 256.70413751 101.13457833 256.71357975 95.03833008 256.71984863 C84.80309686 256.72711443 74.56797931 256.71756533 64.33276367 256.69848633 C52.51975548 256.67671975 40.70702349 256.68377187 28.89402199 256.70579195 C18.72974607 256.72397635 8.56555303 256.7264894 -1.5987339 256.71603727 C-7.65984241 256.70981908 -13.72082133 256.7089206 -19.78192139 256.72218323 C-25.48171593 256.73378532 -31.18115628 256.72563633 -36.88091278 256.7026062 C-38.96575077 256.69734238 -41.05061885 256.69879272 -43.13544464 256.70765686 C-59.93274816 256.77245984 -72.85873401 255.00233367 -85.6496582 243.1105957 C-96.30854295 231.97355538 -98.73521912 218.94314488 -98.70166016 204.05810547 C-98.70677109 202.87626175 -98.71188202 201.69441803 -98.71714783 200.47676086 C-98.72860902 197.25713097 -98.73112582 194.03766201 -98.72858453 190.81801724 C-98.72750714 188.11273048 -98.73241843 185.40746685 -98.73718995 182.70218509 C-98.74825756 176.30420573 -98.74874025 169.90628507 -98.74267578 163.50830078 C-98.73665929 156.9560774 -98.74889384 150.40407002 -98.77024585 143.85188347 C-98.78800503 138.18945805 -98.79384032 132.52710044 -98.79060811 126.86464828 C-98.78881521 123.49945572 -98.79258742 120.1345377 -98.80532265 116.76935005 C-98.91830914 82.720324 -93.20820426 53.35602103 -68.54418945 28.1652832 C-50.13911133 10.17997543 -25.70008179 0.06435505 0 0 Z M-61.42700195 89.17700195 C-79.01290786 110.02591775 -80.88883032 135.27951383 -79.29077148 161.40405273 C-77.54341059 180.36762096 -68.73386728 196.02926207 -55.42700195 209.17700195 C-54.84305664 209.77125977 -54.25911133 210.36551758 -53.6574707 210.9777832 C-39.85350196 223.94302979 -21.68754322 228.32017663 -3.30981445 228.33813477 C-2.09272293 228.34309967 -0.87563141 228.34806458 0.37834167 228.35317993 C3.70734866 228.36525536 7.03629309 228.37273873 10.36531448 228.37719059 C12.4516247 228.38013207 14.53792956 228.38423899 16.62423706 228.38869476 C23.1703002 228.402359 29.71635092 228.41202925 36.26242733 228.41589665 C43.7836939 228.42036612 51.30477771 228.43786658 58.82598877 228.46689725 C64.66152812 228.48862819 70.49701651 228.49860708 76.33259583 228.49993777 C79.80723113 228.50097826 83.28169443 228.50672177 86.75628662 228.52475739 C90.64446687 228.54454758 94.53242529 228.53990403 98.4206543 228.53344727 C99.54843796 228.54266205 100.67622162 228.55187683 101.83818054 228.56137085 C122.46980218 228.45489972 140.32580741 220.9955739 155.32299805 206.98950195 C168.13742852 193.4448374 175.85571135 175.76291167 175.90893555 157.07543945 C175.91559235 156.23590729 175.92224915 155.39637512 175.92910767 154.53140259 C175.93916478 152.76501633 175.94392686 150.9985926 175.94360352 149.23217773 C175.94795377 146.57900656 175.98428339 143.92753374 176.0222168 141.2746582 C176.16297068 120.32644085 170.21961369 102.7669592 156.26831055 86.89575195 C139.86088694 70.3456551 119.18581935 64.13452901 96.39886475 64.03036499 C94.91957489 64.03104477 94.91957489 64.03104477 93.41040039 64.03173828 C92.34224091 64.02837967 91.27408142 64.02502106 90.17355347 64.02156067 C86.66866874 64.012121 83.16383217 64.01011094 79.65893555 64.0090332 C77.20049012 64.00581528 74.74204489 64.00245081 72.28359985 63.99894714 C67.13771115 63.99297296 61.99183919 63.99110543 56.84594727 63.99169922 C50.28989948 63.99180063 43.73396052 63.97816262 37.17793846 63.96092701 C32.1006319 63.94974305 27.02335109 63.94778198 21.94603348 63.94830894 C19.53100841 63.94713791 17.11598248 63.94276605 14.7009697 63.93497658 C-15.14956342 63.84772213 -39.65867126 66.62637188 -61.42700195 89.17700195 Z " fill="#000000" transform="translate(207.427001953125,-0.177001953125)"/>
<path d="M0 0 C1.57612931 -0.00599161 3.15225571 -0.0127986 4.7283783 -0.02035522 C8.99312006 -0.03796055 13.25778147 -0.04270836 17.52255607 -0.0439868 C20.19281385 -0.04541234 22.86305146 -0.04968962 25.53330421 -0.05498123 C34.86564038 -0.07346519 44.19791957 -0.08165411 53.53027344 -0.08007812 C62.20194223 -0.07887798 70.87336162 -0.09995962 79.54496735 -0.13156545 C87.01194852 -0.1578018 94.47884861 -0.16844231 101.94587547 -0.16716731 C106.39577091 -0.16665973 110.84544466 -0.17222898 115.29529381 -0.19352341 C119.48563905 -0.21302972 123.67555399 -0.2129466 127.8659153 -0.19849014 C129.39401002 -0.19641603 130.92213257 -0.20101844 132.45018005 -0.21321106 C147.82687691 -0.32784701 160.27493729 2.62184637 171.64575195 13.39208984 C180.77763294 23.03508357 184.72171404 33.98114341 184.76293945 47.11865234 C184.77131836 47.94157776 184.77969727 48.76450317 184.78833008 49.61236572 C184.8077601 52.25528434 184.80793302 54.89754962 184.80200195 57.54052734 C184.80145813 58.4406958 184.80091431 59.34086426 184.800354 60.26831055 C184.76403141 73.28981373 184.41814638 85.78554895 180.42700195 98.29052734 C180.21269531 98.98355957 179.99838867 99.6765918 179.77758789 100.390625 C174.77442425 116.10288927 166.86538685 129.60617848 156.42700195 142.29052734 C150.12097161 141.09977486 143.89778283 139.69390041 137.67358398 138.13305664 C118.41096612 133.31966198 99.18378535 130.17870523 79.29418945 130.08740234 C78.26712891 130.08038803 77.24006836 130.07337372 76.18188477 130.06614685 C72.88854535 130.04874785 69.59538563 130.04229537 66.30200195 130.04052734 C65.17795959 130.0398526 64.05391724 130.03917786 62.89581299 130.03848267 C46.8742886 130.05379086 31.21676826 130.31207403 15.42700195 133.29052734 C13.895354 133.57186523 13.895354 133.57186523 12.33276367 133.85888672 C1.40053713 135.90650484 -9.37993005 138.24004996 -19.96362305 141.68896484 C-22.77697442 142.33755184 -23.97788802 142.5293453 -26.57299805 141.29052734 C-47.21690797 120.16465844 -54.14323483 88.87466238 -54.07397461 60.42602539 C-54.07299539 57.59533979 -54.11493742 54.76731374 -54.15893555 51.93701172 C-54.26490937 35.85467128 -51.2042093 24.20264893 -39.69799805 12.36083984 C-28.06293427 1.42950977 -15.27783435 -0.01160708 0 0 Z M25.42700195 37.29052734 C20.26971405 44.73268963 19.25379899 51.58474617 20.7980957 60.41162109 C22.40112715 65.90614958 26.09890338 69.56998484 29.96606445 73.64990234 C32.42800915 76.29160808 34.67848469 79.02857408 36.92700195 81.85302734 C47.32163691 94.81823068 47.32163691 94.81823068 62.30981445 100.69677734 C70.60782733 101.12122813 76.83373488 99.00566983 83.28637695 93.78662109 C87.65077217 89.63243758 91.32919554 84.81840596 95.0871582 80.12255859 C97.37149137 77.35771461 99.77401713 74.76865828 102.23950195 72.16552734 C108.08895509 65.68204257 111.20376424 59.64617553 110.81762695 50.77880859 C109.84886522 44.60779636 106.90133783 38.64393523 102.42700195 34.29052734 C96.62544711 30.51576338 91.6807424 28.18767864 84.70947266 28.12939453 C83.31200554 28.11498322 83.31200554 28.11498322 81.88630676 28.10028076 C80.88524399 28.09603088 79.88418121 28.09178101 78.8527832 28.08740234 C77.29517525 28.07885223 77.29517525 28.07885223 75.70610046 28.07012939 C73.50801611 28.06068702 71.30991766 28.05414844 69.11181641 28.05029297 C65.76935699 28.0406138 62.42751956 28.00959351 59.08520508 27.97802734 C56.94523475 27.97149415 54.80526005 27.96624492 52.6652832 27.96240234 C51.67434158 27.95005554 50.68339996 27.93770874 49.66242981 27.92498779 C40.17151842 27.95505217 31.79110596 29.80520402 25.42700195 37.29052734 Z " fill="#000000" transform="translate(190.572998046875,273.70947265625)"/>
<path d="M0 0 C3.48436081 0.01401836 6.96869596 0.00737182 10.45307493 0.00386691 C16.29810054 0.00117858 22.14291917 0.01452318 27.98789549 0.03781772 C34.71474921 0.06444381 41.44125784 0.06616149 48.16814625 0.05442935 C54.68219723 0.04359717 61.19612519 0.04987945 67.71016645 0.06398463 C70.46345432 0.06969501 73.21665069 0.06970135 75.96993971 0.06491923 C79.82427684 0.06198936 83.67806196 0.07859891 87.53232908 0.10031772 C88.65473494 0.09581607 89.77714079 0.09131442 90.93355894 0.08667636 C105.52237593 0.22237185 119.85026506 4.56100877 130.71738768 14.7270267 C143.72147506 29.05356365 147.69967205 43.65807028 147.64634275 62.53269076 C147.64318501 64.86747711 147.6666954 67.20099015 147.69199705 69.53562045 C147.76506385 86.53835446 143.48950662 100.85061646 131.5643115 113.41062045 C119.88002525 125.19507457 105.30064316 129.56895128 88.9998889 129.66211581 C87.92496183 129.66323367 86.85003477 129.66435153 85.74253416 129.66550326 C84.59357161 129.67046817 83.44460905 129.67543307 82.26082945 129.68054843 C78.47030102 129.69511863 74.67981448 129.70196431 70.88926268 129.70749545 C68.91200158 129.71179576 66.93474048 129.71609663 64.95747954 129.72046995 C59.44715513 129.73226055 53.93684076 129.73981072 48.42650503 129.74326515 C41.33765757 129.74773547 34.24900392 129.7652431 27.16021532 129.79426575 C21.65586305 129.81600627 16.1515648 129.82597604 10.64717013 129.82730627 C7.37150846 129.82834591 4.0960689 129.83555885 0.82044363 129.85212588 C-20.74595761 129.95339643 -39.9310923 129.67967899 -56.41933107 113.8520267 C-66.90102889 102.91539408 -72.95832637 90.39434096 -73.00526857 75.12155795 C-73.01525377 73.95646197 -73.01525377 73.95646197 -73.02544069 72.7678287 C-73.03550251 71.13250706 -73.04025973 69.49714489 -73.03993654 67.86179233 C-73.04428394 65.40599454 -73.08059884 62.95203588 -73.11854982 60.49655795 C-73.24253223 43.20635947 -69.1777161 28.6732947 -57.11464357 15.73874545 C-40.15352995 0.24073109 -21.91217676 -0.11026587 0 0 Z M-47.66933107 47.50437045 C-53.52077745 56.8521919 -55.1100325 67.32021781 -53.20448732 78.14499545 C-50.18389256 89.51244085 -43.58648476 98.65889934 -33.52479982 104.81687045 C-31.60064297 105.81757918 -29.67959183 106.69253438 -27.66933107 107.50437045 C-26.69995607 107.89624545 -25.73058107 108.28812045 -24.73183107 108.69187045 C-12.95444581 111.81648287 -2.21395656 110.13642218 8.50645018 104.3207767 C17.7685928 98.363797 23.73113205 89.95286529 26.97129393 79.4223392 C28.12609796 73.2592003 27.93896825 67.79654279 24.33066893 62.50437045 C19.26514751 57.39732837 15.32786072 56.45546035 8.26816893 56.25437045 C1.43897514 55.87228325 -4.25389789 54.91161129 -9.66933107 50.50437045 C-11.88406045 47.7763735 -13.84811631 44.95477735 -15.81386232 42.04343295 C-18.52634208 38.33161855 -20.32926977 37.07577196 -24.66933107 35.50437045 C-35.58615133 33.88512917 -41.38369791 39.12352624 -47.66933107 47.50437045 Z M91.18613768 40.8598392 C87.07987161 45.18377994 87.07987161 45.18377994 85.33066893 50.50437045 C84.00808421 51.1921145 82.6708039 51.85148418 81.33066893 52.50437045 C79.93848143 53.27780795 79.93848143 53.27780795 78.51816893 54.06687045 C73.58959767 56.2204418 68.24704252 55.96804193 62.95176268 56.09812045 C58.39785007 56.60902327 55.05949514 57.89052555 51.68613768 61.0395267 C47.0838074 67.05795861 46.62040618 70.98336902 47.33066893 78.50437045 C48.96374261 84.43589715 51.65945743 89.57118 55.33066893 94.50437045 C55.92363768 95.31003451 56.51660643 96.11569858 57.12754393 96.9457767 C59.43224741 99.62233837 61.59490804 101.26113721 64.58066893 103.12937045 C65.47270018 103.69913608 66.36473143 104.2689017 67.28379393 104.85593295 C73.86715979 108.41770269 79.58015266 110.06850518 87.08066893 110.00437045 C87.86562742 109.99865024 88.65058592 109.99293002 89.45933104 109.98703647 C100.46217558 109.6522506 109.41798577 105.05524106 117.33066893 97.50437045 C124.83449393 89.44657179 128.73813376 79.07380653 128.53770018 68.0864017 C127.62318458 56.68083923 123.2092868 46.55737788 114.58066893 38.87937045 C107.37525472 33.05443279 97.30456752 34.13959659 91.18613768 40.8598392 Z " fill="#000000" transform="translate(218.669331073761,81.49562954902649)"/>
<path d="M0 0 C0.84104279 0.00060425 1.68208557 0.0012085 2.5486145 0.00183105 C27.67234376 0.05078017 52.10550993 3.00693822 76.5 9.1875 C75.12679662 13.30711013 72.30331956 14.66872574 68.8125 16.9375 C68.13767578 17.37924561 67.46285156 17.82099121 66.76757812 18.27612305 C48.24746282 30.18407301 27.54065272 37.09231229 5.5 38.1875 C4.75234375 38.22875 4.0046875 38.27 3.234375 38.3125 C-24.64424529 39.07110191 -54.32883691 29.68876508 -75.5 11.1875 C-75.5 10.5275 -75.5 9.8675 -75.5 9.1875 C-43.12077142 2.25445136 -43.12077142 2.25445136 -31.5 1.1875 C-30.62794922 1.10282471 -29.75589844 1.01814941 -28.85742188 0.9309082 C-19.23546077 0.08044417 -9.6514716 -0.01282919 0 0 Z " fill="#000000" transform="translate(255.5,419.8125)"/>
<path d="M0 0 C0.76695694 0.0028299 1.53391388 0.00565979 2.32411194 0.00857544 C4.74879246 0.01967775 7.17308934 0.04476283 9.59765625 0.0703125 C11.25194775 0.0803552 12.9062451 0.08947878 14.56054688 0.09765625 C18.59389548 0.11958433 22.62696105 0.15404407 26.66015625 0.1953125 C26.51795654 1.03046387 26.37575684 1.86561523 26.22924805 2.72607422 C24.81505906 11.66711839 24.3845794 20.262304 24.47265625 29.3203125 C24.47330078 30.58746094 24.47394531 31.85460937 24.47460938 33.16015625 C24.51040743 40.88458066 24.88447175 48.50987693 25.66015625 56.1953125 C19.50377017 56.26962817 13.3476469 56.32399334 7.19091797 56.36010742 C5.09777272 56.37516719 3.00465889 56.39561921 0.91162109 56.42163086 C-2.10196703 56.45813751 -5.11513687 56.47506723 -8.12890625 56.48828125 C-9.06038483 56.50376511 -9.9918634 56.51924896 -10.9515686 56.53520203 C-17.0513155 56.53677184 -21.3912474 55.740682 -26.16796875 51.6171875 C-32.76010246 43.86599731 -32.892073 36.06340906 -32.33984375 26.1953125 C-31.5754969 18.2313114 -28.34000841 11.59908897 -22.19140625 6.3671875 C-15.16883466 1.42981635 -8.46616005 -0.11980553 0 0 Z " fill="#000000" transform="translate(95.33984375,300.8046875)"/>
<path d="M0 0 C4.78306186 -0.09992737 9.56549757 -0.17195954 14.34936523 -0.21972656 C15.97186893 -0.23966813 17.59430242 -0.26683174 19.21655273 -0.30175781 C30.17511284 -0.53153952 39.07244099 -0.00258965 48.8125 5.625 C56.24835455 13.69821352 58.19506586 21.18961016 58.25 31.8125 C58.270625 32.79798828 58.29125 33.78347656 58.3125 34.79882812 C58.34199276 40.28816875 58.16504164 44.29701559 55 49 C48.22427951 55.48112394 43.10175495 56.29683004 34.10546875 56.1953125 C33.15811356 56.1924826 32.21075836 56.18965271 31.23469543 56.18673706 C28.21883334 56.17557187 25.20327184 56.15047389 22.1875 56.125 C20.13867617 56.11496547 18.08984768 56.10584045 16.04101562 56.09765625 C11.02722852 56.07564449 6.01366517 56.04113971 1 56 C1.07001221 54.89390381 1.14002441 53.78780762 1.2121582 52.64819336 C1.7098667 44.62011615 2.19408288 36.60924223 2.1875 28.5625 C2.18814453 27.69923096 2.18878906 26.83596191 2.18945312 25.9465332 C2.11923905 17.21046628 1.13997902 8.64997194 0 0 Z " fill="#000000" transform="translate(390,301)"/>
<path d="M0 0 C5.10299201 3.85462058 8.24588343 8.63374218 10.0703125 14.75 C11.28890503 23.95384114 10.81261032 32.20411672 5.0703125 39.75 C-1.65436552 46.96109234 -7.34474988 49.9907932 -17.15234375 50.71484375 C-24.6375808 50.80959359 -31.39292497 48.11102278 -36.81640625 42.95703125 C-44.04033335 35.1273241 -45.58747093 29.09727582 -45.3359375 18.48046875 C-44.52583025 11.04150318 -41.4962994 5.91576 -36.1171875 0.8125 C-25.09698617 -7.87256574 -11.58014331 -7.50130741 0 0 Z " fill="#000000" transform="translate(501.9296875,215.25)"/>
<path d="M0 0 C5.83404314 5.96663503 8.88286916 12.67394928 9 21 C8.87348512 30.52024466 6.54929867 35.87984813 -0.015625 42.828125 C-6.0436568 48.1816917 -13.29791661 49.92830704 -21.25 49.8125 C-29.96780194 48.7896532 -36.2932605 44.56470392 -41.73828125 37.859375 C-47.22451678 30.43098374 -47.23533605 22.86053776 -46.25 13.8125 C-43.90723955 5.62368453 -38.6330226 0.01940708 -31.4140625 -4.28125 C-20.50995932 -9.25020841 -9.42139263 -6.34132196 0 0 Z " fill="#000000" transform="translate(46.25,216.1875)"/>
<path d="M0 0 C4.17283902 0.49064203 8.31364959 1.03301679 12.453125 1.75390625 C30.7264929 4.88702745 47.55012927 4.53973882 65.78710938 1.36376953 C69.18037777 0.80596173 72.58500285 0.40153505 76 0 C73.70936807 14.12624898 71.74402115 26.06184872 60.0859375 35.53125 C50.41747476 42.33900654 40.52746617 42.94101765 29 42 C20.71871823 40.39786967 14.44135853 35.26836985 9 29 C3.35502234 20.59789641 0 10.16541285 0 0 Z " fill="#000000" transform="translate(218,470)"/>
<path d="M0 0 C0 23.76 0 47.52 0 72 C-9.14622885 70.47562852 -15.72051855 66.28633225 -21.53515625 59.0625 C-27.86595342 50.14873758 -29.76993078 40.77595412 -28.5234375 29.9453125 C-26.63562029 19.32281862 -21.08735053 11.39394409 -12.33203125 5.07421875 C-4.13335322 0 -4.13335322 0 0 0 Z " fill="#000000" transform="translate(92,110)"/>
<path d="M0 0 C11.83988691 4.30541342 19.29131353 8.49517458 25.0625 19.76171875 C29.26038153 29.7841609 29.90462837 41.31843497 25.9375 51.5625 C21.50882632 60.60540631 15.25175612 66.8674536 6 71 C3.03 71.495 3.03 71.495 0 72 C0 48.24 0 24.48 0 0 Z " fill="#000000" transform="translate(420,110)"/>
<path d="M0 0 C1.28215393 -0.00024925 1.28215393 -0.00024925 2.59020996 -0.00050354 C3.56131714 -0.00988449 4.53242432 -0.01926544 5.53295898 -0.02893066 C6.57987915 -0.01769669 7.62679932 -0.00646271 8.70544434 0.00511169 C9.78169067 0.00365646 10.85793701 0.00220123 11.96679688 0.0007019 C14.2431509 0.00236253 16.51951596 0.01394192 18.79577637 0.03465271 C22.28568069 0.06359338 25.77406558 0.05526724 29.26403809 0.04222107 C31.47368091 0.04845864 33.68331892 0.05684973 35.89294434 0.06761169 C36.9398645 0.06467606 37.98678467 0.06174042 39.06542969 0.05871582 C40.03653687 0.07139999 41.00764404 0.08408417 42.00817871 0.09715271 C42.862948 0.10255569 43.71771729 0.10795868 44.59838867 0.11352539 C47.29468357 0.5884877 48.14547705 1.35704125 49.79919434 3.50120544 C50.86169434 6.18870544 50.86169434 6.18870544 50.79919434 9.50120544 C47.58319081 15.66296009 41.94277966 20.74748107 37.27185059 25.80589294 C34.50148595 28.82572169 31.82619893 31.91651254 29.17419434 35.04026794 C27.25830557 37.07589976 25.92756667 37.47675357 23.17419434 38.00120544 C14.61659424 36.73341284 8.14278932 26.71533411 2.79919434 20.50120544 C2.02446777 19.62593201 1.24974121 18.75065857 0.45153809 17.84886169 C-0.27936035 16.99163513 -1.01025879 16.13440857 -1.76330566 15.25120544 C-2.42459473 14.48292419 -3.08588379 13.71464294 -3.76721191 12.92308044 C-5.59242358 9.83961659 -5.68185203 8.03199239 -5.20080566 4.50120544 C-3.71279962 1.88721036 -2.98666517 0.68017493 0 0 Z " fill="#000000" transform="translate(233.2008056640625,319.49879455566406)"/>
<path d="M0 0 C2.64709871 2.57146732 4.97602482 4.96780476 7.1875 7.9375 C12.83916766 14.83324545 22.64276425 19.36973697 31.38671875 20.3984375 C34.59112784 20.65479023 37.78867546 20.85803596 41 21 C39.32539522 28.03334009 36.76494337 32.55894759 31 37 C25.00713765 40.64272025 18.82854484 40.92089791 12 40 C4.70205565 37.63473826 -0.43840926 34.00863881 -3.9609375 27.12109375 C-6.89534076 20.24274482 -6.7958749 14.5797577 -4.125 7.6875 C-2.92492184 4.8562045 -1.71730267 2.57595401 0 0 Z " fill="#000000" transform="translate(188,134)"/>
<path d="M0 0 C3 1 3 1 4.1328125 2.56640625 C7.69400913 9.73086089 8.90996019 15.91812477 6.83984375 23.765625 C4.57550006 29.78983239 0.94155596 33.81399691 -4.625 37 C-11.30205036 39.94752674 -17.7787391 40.24259652 -24.7734375 38.18359375 C-31.20212639 35.41327286 -35.05856586 31.3387363 -38 25 C-38.65234375 22.21875 -38.65234375 22.21875 -39 20 C-37.98421875 19.92523438 -36.9684375 19.85046875 -35.921875 19.7734375 C-23.81716526 18.69031462 -12.38155295 15.58588073 -4.19921875 5.859375 C-3.70035156 5.16328125 -3.20148438 4.4671875 -2.6875 3.75 C-2.17574219 3.04359375 -1.66398437 2.3371875 -1.13671875 1.609375 C-0.76160156 1.07828125 -0.38648438 0.5471875 0 0 Z " fill="#000000" transform="translate(322,135)"/>
<path d="M0 0 C4.73502552 1.49126091 6.45287771 5.3984042 8.8125 9.4375 C9.23208984 10.11876953 9.65167969 10.80003906 10.08398438 11.50195312 C11.14410175 13.28511595 12.08139389 15.13997814 13 17 C11.86651632 20.40045103 11.1479514 20.87668187 8.3125 22.875 C4.72190521 25.42676251 1.36475849 28.15993204 -2 31 C-3.98438825 27.89914235 -5.96159785 24.79377069 -7.9375 21.6875 C-8.50146484 20.80642578 -9.06542969 19.92535156 -9.64648438 19.01757812 C-10.18466797 18.17001953 -10.72285156 17.32246094 -11.27734375 16.44921875 C-11.77484131 15.66893311 -12.27233887 14.88864746 -12.78491211 14.0847168 C-14 12 -14 12 -15 9 C-14.08476563 8.51789063 -13.16953125 8.03578125 -12.2265625 7.5390625 C-11.0259405 6.90123206 -9.8254252 6.26320074 -8.625 5.625 C-8.02171875 5.30789063 -7.4184375 4.99078125 -6.796875 4.6640625 C-4.21449618 3.2867938 -2.08169419 2.08169419 0 0 Z " fill="#000000" transform="translate(57,271)"/>
<path d="M0 0 C3.41766643 0.62916132 5.6673465 1.95367246 8.5 3.9375 C11.2627187 5.86288786 13.95053593 7.56536576 17 9 C16.36208296 12.2118012 15.22006369 14.5539205 13.49609375 17.328125 C13.00302734 18.12734375 12.50996094 18.9265625 12.00195312 19.75 C11.22754883 20.9875 11.22754883 20.9875 10.4375 22.25 C9.91736328 23.09046875 9.39722656 23.9309375 8.86132812 24.796875 C7.57891379 26.86756237 6.29168194 28.93508572 5 31 C4.54616943 30.60603027 4.09233887 30.21206055 3.62475586 29.80615234 C0.34229311 26.97179109 -2.94400174 24.19915661 -6.4375 21.625 C-7.11683594 21.12226563 -7.79617188 20.61953125 -8.49609375 20.1015625 C-8.99238281 19.73804688 -9.48867188 19.37453125 -10 19 C-8.62394084 14.23448987 -6.53221934 10.2751447 -3.875 6.125 C-3.50246094 5.53203125 -3.12992187 4.9390625 -2.74609375 4.328125 C-1.83635 2.8818657 -0.91896202 1.44041954 0 0 Z " fill="#000000" transform="translate(452,271)"/>
</svg>
